# xmcd
#
# Track frame offsets:
#   150
#   11702
#   29712
#   43539
#   56593
#   70218
#   79625
#   92557
#   106464
#   120447
#   131870
#   144822
#   157806
#   171800
#   185595
#   202846
#   217672
#   234219
#
# Disc length: 3350 seconds
#
# Revision: 0
# Processed by: cddbd v1.5.2PL0 Copyright (c) Steve Scherf et al.
# Submitted via: Click'N Design 3D 5.1
#
DISCID=e50d1412
DTITLE=Pure Country Classics: The #1 Hits - Various Artists
DYEAR=2006
DGENRE=Country
TTITLE0=The Battle of New Orleans
TTITLE1=Big Iron
TTITLE2=Don't Take Your Guns to Town
TTITLE3=Cross the Brazos at Waco
TTITLE4=Wolverton Mountain
TTITLE5=The Ballad of Jed Clampett
TTITLE6=Detroit City
TTITLE7=A Week in a County Jail
TTITLE8=Tom Dooley
TTITLE9=The Ballad of the Green Berets
TTITLE10=The Carroll County Incident
TTITLE11=North to Alaska
TTITLE12=Saginaw, Michigan
TTITLE13=Big Bad John
TTITLE14=A Boy Named Sue
TTITLE15=Harper Valley P.T.A.
TTITLE16=The Devil Went Down to Georgia
TTITLE17=Convoy
EXTD=
EXTT0=
EXTT1=
EXTT2=
EXTT3=
EXTT4=
EXTT5=
EXTT6=
EXTT7=
EXTT8=
EXTT9=
EXTT10=
EXTT11=
EXTT12=
EXTT13=
EXTT14=
EXTT15=
EXTT16=
EXTT17=
PLAYORDER=
